#!OML:ASF I:\golf\golf\golf 2\Subject 1\2002-09-07\Subject1.ASF
:FULLY-SPECIFIED
:DEGREES
179
root -10.3299 17.9147 5.6915 -13.6961 73.5895 -29.2054
lowerback 4.35086 0.894086 -4.25512
upperback 5.5403 1.18922 1.99244
thorax 3.1693 0.449714 4.43664
lowerneck -12.3363 2.92908 4.41128
upperneck 42.5838 8.01575 -5.67325
head 18.6139 3.71066 -1.81744
rclavicle 3.18055e-015 4.13472e-014
rhumerus -11.4226 24.3961 -101.122
rradius 38.0196
rwrist -41.8226
rhand -34.2232 -10.9994
rfingers 7.12502
rthumb -7.39498 -40.8501
lclavicle 3.18055e-015 4.13472e-014
lhumerus -9.39238 -39.2272 105.857
lradius 35.4505
lwrist 48.8093
lhand -1.03204 55.1959
lfingers 7.12502
lthumb 24.6015 83.635
rfemur -31.8873 2.89896 21.6467
rtibia 26.6787
rfoot -6.28907 5.34635
rtoes 5.37147
lfemur -27.1894 10.3401 -6.9471
ltibia 32.4104
lfoot -11.8793 7.72987
ltoes -19.3318
180
root -10.3283 17.9155 5.69035 -13.5768 73.5671 -29.0722
lowerback 4.33835 0.92953 -4.27664
upperback 5.54253 1.23728 1.94061
thorax 3.17402 0.473742 4.39396
lowerneck -12.3393 2.93296 4.51354
upperneck 42.595 7.98247 -5.65247
head 18.6226 3.71666 -1.8326
rclavicle -1.90833e-014 -3.02153e-014
rhumerus -11.4149 24.3225 -101.137
rradius 38.065
rwrist -41.8258
rhand -34.3109 -10.8935
rfingers 7.12502
rthumb -7.47965 -40.7413
lclavicle -1.90833e-014 -3.02153e-014
lhumerus -9.40115 -39.3351 105.858
lradius 35.413
lwrist 48.7925
lhand -0.18636 54.8446
lfingers 7.12502
lthumb 25.4119 83.1709
rfemur -31.8837 2.87722 21.6308
rtibia 26.7028
rfoot -6.32724 5.32706
rtoes 4.84408
lfemur -27.1647 10.3121 -6.97187
ltibia 32.4219
lfoot -11.8935 7.76441
ltoes -19.1148
181
root -10.3271 17.9154 5.68919 -13.6912 73.5366 -29.1884
lowerback 4.31814 0.921466 -4.32376
upperback 5.55347 1.226 1.98832
thorax 3.19687 0.464725 4.47131
lowerneck -12.3485 2.95054 4.47844
upperneck 42.6055 8.02766 -5.66245
head 18.635 3.72724 -1.8223
rclavicle -8.34896e-015 1.74931e-014
rhumerus -11.4114 24.444 -101.081
rradius 38.0836
rwrist -41.8752
rhand -34.3627 -10.6952
rfingers 7.12502
rthumb -7.52962 -40.5412
lclavicle -8.34896e-015 1.74931e-014
lhumerus -9.32466 -39.2364 105.891
lradius 35.3456
lwrist 48.6611
lhand 0.128763 54.7173
lfingers 7.12502
lthumb 25.7137 83.0003
rfemur -31.8796 2.91298 21.6655
rtibia 26.7141
rfoot -6.34786 5.2757
rtoes 4.72692
lfemur -27.1497 10.2687 -6.91263
ltibia 32.4327
lfoot -11.8825 7.75464
ltoes -18.7585
182
root -10.3257 17.9148 5.68835 -13.7307 73.5081 -29.2068
lowerback 4.31279 0.922774 -4.41098
upperback 5.58057 1.22644 2.0537
thorax 3.22648 0.459493 4.58967
lowerneck -12.3521 2.95757 4.39967
upperneck 42.5761 8.07771 -5.70703
head 18.6216 3.72836 -1.81909
rclavicle -3.97569e-014 -3.89618e-014
rhumerus -11.3876 24.5121 -100.953
rradius 38.0882
rwrist -41.8651
rhand -34.2716 -10.6335
rfingers 7.12502
rthumb -7.44173 -40.4826
lclavicle -3.97569e-014 -3.89618e-014
lhumerus -9.23334 -39.1341 105.951
lradius 35.2972
lwrist 48.5703
lhand 0.201409 54.732
lfingers 7.12502
lthumb 25.7833 83.0049
rfemur -31.8535 2.95084 21.6711
rtibia 26.7219
rfoot -6.33518 5.25154
rtoes 4.87313
lfemur -27.1177 10.2958 -6.8993
ltibia 32.437
lfoot -11.8673 7.7401
ltoes -18.7768
183
root -10.3235 17.9144 5.68702 -13.6517 73.4801 -29.1078
lowerback 4.30139 0.961331 -4.41996
upperback 5.59556 1.27902 2.03141
thorax 3.24294 0.485298 4.57089
lowerneck -12.3575 2.94939 4.4347
upperneck 42.5499 8.0511 -5.71373
head 18.6066 3.72245 -1.83316
rclavicle -7.55382e-015 2.38542e-014
rhumerus -11.3376 24.2709 -100.905
rradius 38.0346
rwrist -41.6224
rhand -34.1472 -10.6928
rfingers 7.12502
rthumb -7.3217 -40.5462
lclavicle -7.55382e-015 2.38542e-014
lhumerus -9.22741 -39.2501 105.978
lradius 35.2757
lwrist 48.5786
lhand 0.552133 54.7417
lfingers 7.12502
lthumb 26.1191 82.9654
rfemur -31.8336 2.98551 21.6442
rtibia 26.7286
rfoot -6.37165 5.27026
rtoes 4.84735
lfemur -27.0827 10.3076 -6.91811
ltibia 32.4394
lfoot -11.9019 7.77007
ltoes -18.9624
